# xmcd
#
# Track frame offsets:
#	150
#	10338
#	20030
#	31177
#	41556
#	45811
#	58473
#	66318
#	73122
#	82377
#	93047
#	104722
#	112361
#	123419
#	128483
#	138892
#	151369
#	159277
#	170242
#	178602
#
# Disc length: 2468 seconds
# Revision: 0
# Processed by: cddbd v1.5.2PL0 Copyright (c) Steve Scherf et al.
# Submitted via: dBpowerAMP V12.0
#
DISCID=1c09a214
DTITLE=Lee Moore - 20 Early Favorites
DYEAR=1998
DGENRE=Country
TTITLE0=Little Girl Dressed In Blue
TTITLE1=Your My Own Sweet Darling Wife
TTITLE2=My Mother's Grave
TTITLE3=Automobile Of Life
TTITLE4=Answer To The Maple On The Hill
TTITLE5=She's Some Daisy For 19 Years Old
TTITLE6=You Are My Love
TTITLE7=Heavenly Cannonball
TTITLE8=Strand From A Yellow Curl
TTITLE9=When My Mother Played The Organ
TTITLE10=The Cat Came Back
TTITLE11=Streamlined Cannonball
TTITLE12=Strawberry Roan
TTITLE13=I Believe That Good Old Bible
TTITLE14=The Deepening Snow
TTITLE15=The Weary Traveler
TTITLE16=When Father Hung The Paper On The Wall
TTITLE17=I'm Going Home This Evening
TTITLE18=Wreck Of The Happy Valley
TTITLE19=Single Life Is Good Enough For Me
EXTD=
EXTT0=
EXTT1=
EXTT2=
EXTT3=
EXTT4=
EXTT5=
EXTT6=
EXTT7=
EXTT8=
EXTT9=
EXTT10=
EXTT11=
EXTT12=
EXTT13=
EXTT14=
EXTT15=
EXTT16=
EXTT17=
EXTT18=
EXTT19=
PLAYORDER=
